<?xml version="1.0" encoding="UTF-8" standalone="no"?>
<!DOCTYPE svg PUBLIC "-//W3C//DTD SVG 1.1//EN" "http://www.w3.org/Graphics/SVG/1.1/DTD/svg11.dtd">
<svg width="100%" height="100%" viewBox="0 0 1920 1080" version="1.1" xmlns="http://www.w3.org/2000/svg" xmlns:xlink="http://www.w3.org/1999/xlink" xml:space="preserve" xmlns:serif="http://www.serif.com/" style="fill-rule:evenodd;clip-rule:evenodd;stroke-linejoin:round;stroke-miterlimit:2;">
    <g transform="matrix(0.954245,0,0,0.897023,43.9847,55.6318)">
        <path d="M19.927,-2.296C8.38,-2.253 -0.959,7.717 -0.959,20C-0.959,28.989 -2.625,862.669 -1.458,1030.81C-1.334,1048.74 -1.117,1059.57 -0.928,1061.72C-0.074,1071.39 4.756,1075.36 5.645,1076.25C8.405,1079.01 9.637,1084.37 37.759,1085.3C100.855,1087.39 398.806,1082.69 1900.01,1082.3C1904.26,1082.3 1916.21,1081.47 1920.35,1065.68C1920.93,1063.48 1921.96,1051.51 1922.4,1031.51C1925.75,880.246 1924.67,184.313 1921.93,44.141C1921.61,28.118 1921.08,18.456 1920.73,16.397C1919.41,8.611 1915.69,5.087 1914.36,3.755C1913.17,2.574 1909.67,-1.143 1902.19,-2.277C1898.05,-2.906 1878.34,-3.565 1845.93,-3.978C1537.38,-7.907 19.927,-2.296 19.927,-2.296ZM1879.93,41.327C1871.03,41.069 1859.07,40.784 1845.42,40.611C1558.3,36.954 223.941,41.566 40.92,42.222C40.677,176.548 39.4,877.842 40.459,1030.49L40.548,1039.91C102.878,1039.53 434.163,1038.1 1880.29,1037.71L1880.49,1030.46C1883.83,879.5 1882.76,184.961 1880.02,45.07L1879.93,41.327Z"/>
    </g>
    <g transform="matrix(0.958505,0,0,0.924151,40.089,57.2879)">
        <path d="M948.621,378.288C945.617,377.063 935.597,373.013 924.978,369.085C856.839,343.881 674.876,281.189 492.869,218.448C310.489,155.578 128.066,92.659 59.605,67.223C44.96,61.781 35.21,57.888 31.292,55.975C27.207,53.98 24.965,51.947 23.994,50.976C15.703,42.686 15.462,28.974 23.455,20.376C30.371,12.936 41.2,11.746 49.359,16.935C51.246,17.714 62.127,22.183 73.679,26.475C141.995,51.858 324.036,114.637 506.031,177.374C688.399,240.239 870.721,303.063 938.996,328.317C949.003,332.018 956.707,334.988 961.801,337.093C964.377,336.301 967.637,335.277 971.092,334.152C1070.19,301.872 1567.85,128.255 1779.53,52.194C1828.07,34.754 1866.86,19.963 1871.67,18.124C1874.71,16.322 1878.23,15.295 1881.97,15.295C1893.49,15.295 1902.84,24.992 1902.84,36.937C1902.84,39.756 1902.99,49.334 1892.23,55.858C1890.36,56.99 1880.27,61.259 1863.29,67.587C1729.15,117.563 1111.99,333.259 988.008,374.002C973.742,378.69 965.089,381.147 963.295,381.417C956.243,382.478 951.505,380.348 948.621,378.288ZM1861.14,35.659L1861.14,35.794L1861.21,34.841L1861.14,35.659ZM1862.37,29.5C1861.71,31.322 1861.36,33.07 1861.22,34.703C1861.4,32.893 1861.79,31.149 1862.37,29.5ZM1863.07,27.762C1862.96,28.018 1862.84,28.273 1862.73,28.529L1862.38,29.491L1862.75,28.516L1863.16,27.573L1863.07,27.762ZM1863.44,26.988L1863.2,27.492L1863.52,26.841L1863.44,26.988ZM1863.86,26.208L1863.82,26.269L1863.88,26.158L1863.86,26.208Z"/>
    </g>
    <g transform="matrix(42.1195,0,0,42.1195,-32384.6,-27906.8)">
        <text x="785.499px" y="682.422px" style="font-family:'ArialMT', 'Arial', sans-serif;font-size:12px;">@</text>
    </g>
</svg>
